<svg width="624" height="176" viewBox="0 0 624 176" fill="none" xmlns="http://www.w3.org/2000/svg">
<path d="M67.65 110.18C65.6137 108.15 63.2113 106.525 60.57 105.39C57.8408 104.206 54.8949 103.603 51.92 103.62C46.3677 103.512 40.9964 105.595 36.97 109.42C35.0083 107.622 32.7477 106.18 30.29 105.16C27.7473 104.14 25.0296 103.627 22.29 103.65C21.0592 103.65 19.831 103.761 18.62 103.98C17.451 104.191 16.3079 104.526 15.21 104.98H-0.0300293V158.48H15.18V126.18C15.1372 124.257 15.8561 122.395 17.18 121C17.8332 120.319 18.6173 119.778 19.4852 119.408C20.353 119.038 21.2866 118.847 22.23 118.847C23.1733 118.847 24.107 119.038 24.9748 119.408C25.8426 119.778 26.6267 120.319 27.28 121C28.6001 122.398 29.3184 124.258 29.28 126.18V158.44H44.49V126.18C44.4979 124.236 45.2737 122.373 46.6485 120.999C48.0233 119.624 49.8857 118.848 51.83 118.84C52.7769 118.82 53.7172 119.003 54.588 119.375C55.4588 119.748 56.2402 120.302 56.88 121C58.2002 122.398 58.9184 124.258 58.88 126.18V158.44H74.09V126.18C74.1102 123.14 73.5078 120.128 72.32 117.33C71.2325 114.671 69.6475 112.244 67.65 110.18Z" fill="white"/>
<path d="M123.37 130.92C127.477 128.387 131.81 125.767 136.37 123.06C136.001 122.467 135.667 121.853 135.37 121.22C135.02 120.61 134.63 119.91 134.19 119.12L132.75 116.5C130.295 112.3 126.826 108.783 122.66 106.27C118.577 103.835 113.904 102.565 109.15 102.6C105.408 102.583 101.703 103.342 98.2701 104.83C94.9335 106.268 91.9076 108.34 89.3601 110.93C86.8188 113.532 84.7842 116.584 83.3601 119.93C81.8925 123.412 81.1365 127.152 81.1365 130.93C81.1365 134.708 81.8925 138.448 83.3601 141.93C86.2134 148.677 91.5726 154.054 98.3101 156.93C101.742 158.423 105.448 159.182 109.19 159.16C114.406 159.214 119.531 157.789 123.97 155.05C128.429 152.294 132.074 148.401 134.53 143.77L120.89 136.95C119.691 139.028 118.006 140.785 115.98 142.07C113.927 143.393 111.532 144.088 109.09 144.07C108.164 144.073 107.241 143.965 106.34 143.75C105.46 143.53 104.63 143.29 103.85 143.02C106.117 141.633 109.043 139.82 112.63 137.58C116.217 135.34 119.797 133.12 123.37 130.92ZM96.2301 129.87C96.1404 128.245 96.4565 126.623 97.1501 125.15C97.8319 123.693 98.7896 122.382 99.9701 121.29C101.17 120.18 102.572 119.311 104.1 118.73C105.694 118.113 107.39 117.8 109.1 117.81C110.763 117.812 112.394 118.264 113.82 119.12C110.487 121.12 107.487 122.957 104.82 124.63C102.153 126.303 99.2901 128.05 96.2301 129.87Z" fill="white"/>
<path d="M188.14 110.99C185.843 108.703 183.127 106.88 180.14 105.62C177.034 104.289 173.689 103.608 170.31 103.62C166.864 103.591 163.453 104.307 160.31 105.72V104.93H145.11V158.43H160.31V128.83C160.194 127.451 160.366 126.063 160.814 124.754C161.263 123.445 161.978 122.243 162.914 121.225C163.851 120.207 164.989 119.393 166.256 118.837C167.523 118.281 168.891 117.994 170.275 117.994C171.659 117.994 173.027 118.281 174.294 118.837C175.561 119.393 176.699 120.207 177.636 121.225C178.572 122.243 179.287 123.445 179.736 124.754C180.184 126.063 180.356 127.451 180.24 128.83V158.46H195.45V128.83C195.463 125.448 194.783 122.099 193.45 118.99C192.202 116.012 190.4 113.297 188.14 110.99Z" fill="white"/>
<path d="M224.59 89.75H209.38V104.96H199.68V120.17H209.38V158.45H224.59V120.17H237.96V104.96H224.59V89.75Z" fill="white"/>
<path d="M282.8 106.01C280.814 104.97 278.726 104.136 276.57 103.52C274.417 102.907 272.189 102.597 269.95 102.6C266.22 102.582 262.524 103.31 259.079 104.74C255.635 106.171 252.51 108.275 249.89 110.93C247.348 113.531 245.314 116.583 243.89 119.93C242.423 123.412 241.667 127.152 241.667 130.93C241.667 134.708 242.423 138.448 243.89 141.93C246.729 148.704 252.116 154.091 258.89 156.93C262.385 158.455 266.157 159.242 269.97 159.24C274.448 159.275 278.863 158.196 282.82 156.1V158.46H297.97V104.96H282.8V106.01ZM281.8 136.1C281.178 137.662 280.247 139.082 279.063 140.277C277.879 141.471 276.467 142.414 274.91 143.05C272.92 143.897 270.75 144.234 268.597 144.031C266.444 143.827 264.375 143.09 262.579 141.886C260.783 140.681 259.315 139.047 258.31 137.133C257.304 135.218 256.792 133.082 256.82 130.92C256.825 129.188 257.164 127.473 257.82 125.87C258.451 124.303 259.389 122.878 260.58 121.68C261.784 120.481 263.206 119.524 264.77 118.86C266.406 118.156 268.169 117.799 269.95 117.81C271.673 117.8 273.377 118.158 274.95 118.86C276.49 119.535 277.891 120.491 279.08 121.68C280.271 122.878 281.21 124.303 281.84 125.87C282.496 127.473 282.836 129.188 282.84 130.92C282.839 132.696 282.492 134.456 281.82 136.1H281.8Z" fill="white"/>
<path d="M325.02 85.8201H309.81V158.45H325.02V85.8201Z" fill="white"/>
<path d="M436.68 123.18C436.71 126.501 436.067 129.794 434.79 132.86C433.565 135.801 431.802 138.487 429.59 140.78C427.365 143.073 424.721 144.916 421.8 146.21C418.743 147.536 415.447 148.22 412.115 148.22C408.783 148.22 405.487 147.536 402.43 146.21C396.48 143.57 391.725 138.812 389.09 132.86C387.74 129.813 387.058 126.513 387.09 123.18V43.8501H359.69V123.18C359.641 130.202 361.048 137.158 363.82 143.61C369.137 156.168 379.132 166.163 391.69 171.48C398.14 174.247 405.092 175.653 412.11 175.61C419.097 175.662 426.018 174.255 432.43 171.48C438.595 168.813 444.205 165.014 448.97 160.28C453.724 155.51 457.495 149.853 460.07 143.63C462.758 137.157 464.118 130.209 464.07 123.2V43.8501H436.68V123.18Z" fill="white"/>
<path d="M618.31 43.0299C614.772 34.693 609.705 27.0921 603.37 20.6199C597.053 14.2139 589.559 9.08691 581.3 5.51991C572.781 1.82549 563.586 -0.054399 554.3 -7.61176e-05C548.596 -0.0143317 542.916 0.752796 537.42 2.27992C532.021 3.78442 526.796 5.85246 521.83 8.44992V5.84991H484.22V59.2799C484.22 59.2799 483.51 82.0099 505.7 81.7399C514.7 81.6299 520.7 78.2799 524.62 74.3399L524.17 73.5199C522.258 69.9993 519.906 66.7364 517.17 63.8099C512.97 59.3699 510.88 58.9099 510.88 58.9099C510.88 58.9099 518.08 51.5399 524.88 53.6199C528.301 54.7414 531.994 54.7168 535.4 53.5499C557.72 35.5499 585.4 43.9199 585.4 43.9199C585.4 43.9199 577.84 70.9999 551.53 80.5299C551.53 80.5299 546.8 83.1099 544.89 89.9999C542.98 96.8899 532.89 98.9999 532.89 98.9999C532.89 98.9999 533.63 96.9999 532.14 91.0599C531.282 87.7444 530.058 84.5347 528.49 81.4899C522.488 82.8118 516.666 84.8497 511.15 87.5599C503.013 91.6803 496.183 97.9841 491.425 105.766C486.667 113.547 484.169 122.499 484.21 131.62V175.62H521.87V132.47C531.874 137.735 543.036 140.416 554.34 140.27C563.626 140.324 572.821 138.444 581.34 134.75C598.026 127.621 611.292 114.29 618.34 97.5699C622.028 88.9128 623.897 79.5897 623.83 70.1799C623.878 60.8465 621.999 51.6036 618.31 43.0299Z" fill="white"/>
<path d="M563.03 63.18C564.073 62.6109 564.923 61.7451 565.473 60.6924C566.023 59.6398 566.248 58.4476 566.12 57.2668C565.992 56.086 565.516 54.9698 564.753 54.0596C563.99 53.1493 562.974 52.486 561.834 52.1536C560.694 51.8212 559.481 51.8347 558.348 52.1923C557.215 52.55 556.214 53.2358 555.472 54.1628C554.729 55.0898 554.279 56.2163 554.177 57.3996C554.075 58.5829 554.327 59.7698 554.9 60.81C555.666 62.2 556.952 63.2299 558.476 63.6741C559.999 64.1183 561.637 63.9406 563.03 63.18Z" fill="white"/>
</svg>
